# xmcd CD database file
#
# Track frame offsets:
#	180
#	18313
#	28721
#	40552
#	54795
#	70370
#	85490
#	95813
#	107287
#	132039
#	140512
#	150774
#	166748
#
# Disc length: 2394 seconds
#
# Revision: 2
# Processed by: cddbd v1.4PL0 Copyright (c) Steve Scherf et al.
# Submitted via: CDex 1.50
#
DISCID=9409580d
DTITLE=Meat Purveyors - Sweet in the Pants
DYEAR=1997
DGENRE=Bluegrass
TTITLE0=Dempsey Nash
TTITLE1=100 Miles
TTITLE2=The Bottle Let Me Down
TTITLE3=Lady Muleskinner
TTITLE4=Biggest Mistake
TTITLE5=Victoria's Waltz
TTITLE6=Leave That Man Alone
TTITLE7=I'll Be There
TTITLE8=Burning Love
TTITLE9=Bitt's Breakdown
TTITLE10=Why Honey Why
TTITLE11=Go Out Smokin'
TTITLE12=Willow Garden
EXTD=YEAR: 1997
EXTT0=
EXTT1=\n
EXTT2=
EXTT3=
EXTT4=
EXTT5=
EXTT6=
EXTT7=
EXTT8=
EXTT9=
EXTT10=
EXTT11=
EXTT12=
PLAYORDER=
